<svg width="54" height="52" viewBox="0 0 54 52" fill="none" xmlns="http://www.w3.org/2000/svg">
<g clip-path="url(#clip0_2_2)">
<path d="M36.3101 2.82649C37.6728 3.33962 38.8592 4.21951 39.9929 5.12275C40.1672 5.2682 40.1672 5.2682 40.3848 5.38065C40.5838 5.57769 40.5838 5.57769 40.6221 5.91382C40.6166 6.05053 40.6112 6.18725 40.6056 6.3281C40.6015 6.48206 40.5977 6.63602 40.5942 6.78999C40.5921 6.86955 40.5899 6.94912 40.5876 7.0311C40.5815 7.41204 40.5963 7.79148 40.6125 8.17202C40.6156 8.24857 40.6186 8.32513 40.6218 8.404C40.6316 8.64462 40.6419 8.88521 40.6522 9.1258C40.6592 9.29656 40.6662 9.46733 40.6732 9.6381C40.6914 10.0813 40.71 10.5246 40.7287 10.9678C40.7479 11.4225 40.7666 11.8773 40.7853 12.3321C40.822 13.2198 40.8591 14.1075 40.8965 14.9952C40.5838 15.101 40.5838 15.101 40.2487 14.9531C40.1188 14.8844 39.9895 14.8146 39.8606 14.7439C38.842 14.1941 37.7459 14.0656 36.6093 14.3306C35.7312 14.6681 35.2489 15.1575 34.8487 16.0108C34.498 16.8832 34.5646 17.917 34.8508 18.8046C34.9196 18.8395 34.9884 18.8744 35.0592 18.9104C35.1244 19.1286 35.1244 19.1286 35.1635 19.3337C35.2323 19.3337 35.3011 19.3337 35.3719 19.3337C35.4775 19.5092 35.5815 19.6857 35.6847 19.8627C35.8193 20.006 35.9587 20.1447 36.1016 20.2794C38.4525 22.635 39.4432 25.4475 39.6456 28.7512C39.7525 28.699 39.8593 28.6467 39.9694 28.5929C40.1112 28.5244 40.253 28.4559 40.3948 28.3875C40.4651 28.353 40.5353 28.3186 40.6076 28.2831C40.9805 28.1039 41.3173 27.9625 41.7304 27.9047C41.8635 31.8001 40.4851 35.1766 37.8942 38.0213C35.1515 40.9822 30.9442 43.0361 26.922 43.2598C26.6813 43.267 26.4408 43.2708 26.1999 43.2731C26.1108 43.2741 26.0217 43.2752 25.9299 43.2762C23.9679 43.2944 22.0726 43.2871 20.1534 42.8246C20.049 42.8002 19.9447 42.7758 19.8371 42.7506C16.709 41.9978 13.7157 40.6169 11.189 38.592C11.0914 38.5152 10.9937 38.4384 10.893 38.3593C9.0477 36.8711 7.35342 35.1394 5.97721 33.1954C5.93089 33.1304 5.88457 33.0654 5.83684 32.9984C3.3713 29.5147 3.3713 29.5147 3.3713 28.4338C3.3025 28.4338 3.2337 28.4338 3.16282 28.4338C4.20121 33.0151 6.02431 37.3603 9.10431 40.9199C9.18547 41.0139 9.26663 41.1079 9.35025 41.2047C10.6521 42.6765 12.0083 44.0923 13.5865 45.2584C13.7064 45.349 13.8262 45.4396 13.946 45.5303C14.7999 46.1695 15.6875 46.7366 16.6094 47.2688C16.6752 47.3074 16.7411 47.346 16.8089 47.3857C19.4574 48.9246 22.4583 49.9579 25.4695 50.4433C25.5653 50.4591 25.6611 50.4749 25.7598 50.4912C27.8815 50.8271 29.9999 50.7944 32.1406 50.7607C32.1406 50.8306 32.1406 50.9004 32.1406 50.9724C31.2648 51.211 30.3906 51.4233 29.4956 51.5742C29.4215 51.5868 29.3473 51.5994 29.2709 51.6124C23.1216 52.6105 16.4419 50.9248 11.378 47.2755C11.1395 47.0993 10.9034 46.92 10.6679 46.7398C10.6087 46.6949 10.5495 46.6501 10.4885 46.6039C9.47733 45.8346 8.55286 44.9856 7.645 44.0944C7.55215 44.0033 7.4593 43.9122 7.36364 43.8183C3.52268 39.9787 0.701329 34.306 0.270257 28.8268C0.243097 28.5274 0.202965 28.2307 0.162916 27.9329C-0.103452 25.8846 -0.00636848 23.7987 0.348434 21.7674C0.364559 21.6704 0.380683 21.5734 0.397295 21.4735C0.446156 21.2119 0.446156 21.2119 0.556908 20.8151C0.660102 20.7801 0.763296 20.7452 0.869618 20.7092C0.925515 20.8032 0.981411 20.8972 1.039 20.994C1.87551 22.2637 3.61189 23.0464 4.95439 23.5993C5.0844 23.653 5.0844 23.653 5.21704 23.7077C5.70816 23.9031 6.1879 24.0519 6.706 24.1537C6.92197 24.2026 7.1195 24.2725 7.32577 24.3533C7.80149 24.5205 8.28342 24.6066 8.77857 24.6905C8.85475 24.7036 8.93093 24.7166 9.00942 24.73C10.1881 24.9211 11.3587 24.9631 12.5506 24.9617C12.6263 24.9617 12.7019 24.9618 12.7798 24.9618C14.637 25.0492 14.637 25.0492 16.4009 24.6244C16.5502 24.603 16.7002 24.5858 16.8504 24.5715C17.1143 24.5445 17.3655 24.5131 17.6257 24.4591C17.8823 24.4084 18.1206 24.4052 18.3814 24.4128C18.4158 24.3429 18.4502 24.2731 18.4856 24.2011C18.7552 24.1212 19.02 24.0521 19.2934 23.9895C19.7717 23.8778 20.221 23.7605 20.6746 23.5663C20.8218 23.5227 20.9695 23.4809 21.1176 23.4406C21.7289 23.2601 22.3086 23.0087 22.8934 22.7554C23.4684 22.5081 23.4684 22.5081 23.6974 22.5081C23.7318 22.4383 23.7662 22.3684 23.8017 22.2965C24.0563 22.1714 24.3114 22.0543 24.5704 21.9393C27.0345 20.8334 27.0345 20.8334 28.9093 19.0162C28.9822 18.9734 29.0552 18.9305 29.1304 18.8864C29.5207 18.6423 29.8344 18.343 30.1666 18.0242C30.2355 17.9582 30.3043 17.8922 30.3753 17.8242C32.2881 15.9736 34.4426 13.5444 35.0592 10.8684C35.128 10.8684 35.1968 10.8684 35.2677 10.8684C35.2806 10.779 35.2935 10.6895 35.3068 10.5973C35.3748 10.2179 35.4603 9.85877 35.5804 9.49285C35.6492 9.45793 35.718 9.42301 35.7889 9.38703C35.8263 9.18046 35.8263 9.18046 35.8345 8.9307C35.8666 8.51811 35.9335 8.14538 36.043 7.7469C36.4493 6.1738 36.5631 4.43168 36.3101 2.82649ZM37.0397 8.96377C37.0397 9.10345 37.0397 9.24312 37.0397 9.38703C37.3864 9.50432 37.6257 9.4764 37.9779 9.38703C37.9091 9.28227 37.8403 9.17752 37.7694 9.06958C37.3975 8.9917 37.3975 8.9917 37.0397 8.96377ZM36.1016 11.0801C35.9984 11.1848 35.8952 11.2896 35.7889 11.3975C35.9953 11.3626 36.2017 11.3277 36.4143 11.2917C36.3111 11.2219 36.2079 11.152 36.1016 11.0801ZM33.183 16.1592C33.183 16.264 33.183 16.3687 33.183 16.4766C33.3206 16.5465 33.4582 16.6163 33.5999 16.6883C33.4635 16.3579 33.4635 16.3579 33.183 16.1592ZM32.5576 16.7941C32.4949 16.8692 32.4949 16.8692 32.4309 16.9458C31.9427 17.5223 31.4246 18.0611 30.8898 18.5929C31.1553 18.7277 31.2343 18.6676 31.5152 18.5929C31.6706 18.587 31.8263 18.5863 31.9818 18.5901C32.1124 18.592 32.1124 18.592 32.2457 18.594C32.4284 18.5977 32.611 18.6019 32.7937 18.6064C32.9239 18.6081 32.9239 18.6081 33.0568 18.6099C33.1756 18.6126 33.1756 18.6126 33.2968 18.6153C33.5209 18.6114 33.5209 18.6114 33.7042 18.3813C33.7344 18.0499 33.6966 17.7466 33.5999 17.429C33.2718 17.1321 33.1033 17.0057 32.6618 17.0057C32.6274 16.9359 32.593 16.866 32.5576 16.7941ZM33.5999 18.4871C33.5999 18.557 33.5999 18.6268 33.5999 18.6988C33.6687 18.6988 33.7375 18.6988 33.8084 18.6988C33.8084 18.6289 33.8084 18.5591 33.8084 18.4871C33.7396 18.4871 33.6708 18.4871 33.5999 18.4871ZM33.8084 18.6988C33.9126 18.9104 33.9126 18.9104 33.9126 18.9104L33.8084 18.6988ZM33.9126 18.9104C33.947 19.085 33.9814 19.2596 34.0169 19.4395C34.0513 19.3347 34.0857 19.23 34.1211 19.122C34.0523 19.0522 33.9835 18.9823 33.9126 18.9104ZM34.1211 19.4395C34.044 19.7214 33.9961 19.9052 34.0885 20.1868C34.2661 20.4528 34.4066 20.4897 34.7074 20.577C34.8352 20.6154 34.8352 20.6154 34.9656 20.6547C35.0309 20.6727 35.0962 20.6907 35.1635 20.7092C34.6833 20.0389 34.6833 20.0389 34.1211 19.4395ZM28.805 20.3918C28.6756 20.4957 28.6756 20.4957 28.5436 20.6018C27.4175 21.4843 26.2131 22.1693 24.9483 22.8256C24.856 22.8735 24.7637 22.9214 24.6687 22.9708C21.6664 24.5128 18.3934 25.5095 15.0458 25.8942C15.1716 25.9957 15.1716 25.9957 15.2999 26.0992C15.567 26.3174 15.567 26.3174 15.6712 26.4233C15.8471 26.4289 16.023 26.4331 16.1989 26.4365C16.8817 26.4922 17.198 26.7747 17.6517 27.2698C17.7514 27.3692 17.8513 27.4684 17.9514 27.5674C18.0245 27.6438 18.0976 27.7202 18.1729 27.7989C18.4237 28.0534 18.4895 28.0325 18.8309 28.0436C19.2243 28.0783 19.3085 28.1073 19.6322 28.3742C19.9005 28.7231 19.9594 28.8865 19.958 29.32C19.9584 29.4423 19.9584 29.4423 19.9588 29.5671C19.9453 29.8022 19.9047 30.0068 19.8407 30.2326C19.9611 30.2064 20.0815 30.1802 20.2055 30.1532C20.6585 30.0952 20.9 30.2074 21.2874 30.4343C21.5269 30.5597 21.7485 30.6185 22.0101 30.6823C22.6676 30.8678 23.1836 31.2681 23.6974 31.714C23.8605 32.0451 23.8309 32.2989 23.8017 32.6664C23.6718 33.0318 23.5004 33.3675 23.2593 33.6705C22.8711 34.1687 22.764 34.5878 22.6942 35.2125C22.6233 35.7979 22.5527 36.2813 22.2381 36.7931C21.8769 37.0376 21.5455 37.1242 21.1306 37.2396C20.8597 37.3176 20.8597 37.3176 20.5703 37.5339C20.502 37.7364 20.502 37.7364 20.4596 37.977C20.3119 38.529 20.0545 38.9558 19.743 39.4253C19.698 39.4933 19.6531 39.5612 19.6067 39.6312C19.2559 40.1472 18.9266 40.5699 18.3553 40.8406C18.2817 40.876 18.208 40.9115 18.1322 40.948C18.0768 40.9737 18.0215 40.9993 17.9644 41.0257C18.2948 41.3611 18.7205 41.4217 19.1631 41.5482C19.261 41.5763 19.3589 41.6045 19.4597 41.6334C24.0467 42.9131 29.2564 42.4704 33.4546 40.1339C33.9328 39.8501 34.3952 39.5465 34.8508 39.2269C34.7885 38.5774 34.6928 37.9519 34.5511 37.3156C34.5343 37.2362 34.5175 37.1567 34.5002 37.0748C34.4133 36.6791 34.3112 36.308 34.1618 35.9317C34.016 35.553 33.9749 35.2255 33.9778 34.8157C33.977 34.7018 33.9762 34.5879 33.9753 34.4706C34.0217 34.1104 34.1412 33.9227 34.3296 33.6187C34.4911 32.7666 34.229 31.7797 33.7652 31.063C33.7171 30.9963 33.669 30.9296 33.6195 30.8609C33.3176 30.4188 33.3858 30.049 33.4749 29.5361C33.5242 29.2525 33.5242 29.2525 33.2872 28.9628C33.0792 28.8909 32.8707 28.8204 32.6618 28.7512C32.6145 28.6945 32.5672 28.6377 32.5185 28.5792C32.2852 28.3789 32.0809 28.3915 31.7839 28.4015C31.3206 28.4571 30.87 28.57 30.417 28.6818C29.5159 28.855 29.5159 28.855 29.0982 28.6264C28.1498 27.7259 27.3104 26.611 27.2415 25.2593C27.2931 25.1545 27.2931 25.1545 27.3457 25.0477C27.3433 24.8497 27.3403 24.6517 27.3335 24.4539C27.2996 23.3489 27.3928 22.3771 28.1275 21.5029C28.2472 21.3775 28.3686 21.2538 28.4923 21.1325C28.5762 21.0452 28.66 20.9579 28.7464 20.868C28.8002 20.8156 28.8539 20.7632 28.9093 20.7092C28.8749 20.6045 28.8405 20.4997 28.805 20.3918ZM4.5179 24.5186C4.8276 28.0554 5.96877 31.4491 8.16618 34.2536C8.21074 34.3108 8.2553 34.3679 8.30121 34.4268C10.1949 36.8306 12.6216 38.9236 15.4627 40.0734C15.4481 39.8132 15.4328 39.5531 15.4171 39.293C15.413 39.2191 15.4089 39.1452 15.4047 39.069C15.3853 38.6583 15.3853 38.6583 15.2543 38.2746C15.2872 38.0274 15.3223 37.7805 15.3585 37.5339C15.3729 37.248 15.3824 36.9665 15.3846 36.6807C15.3867 36.6086 15.3889 36.5365 15.3911 36.4623C15.3954 35.8916 15.2756 35.4747 14.9044 35.0405C14.7162 34.8735 14.5517 34.8022 14.3198 34.7103C13.8932 34.5014 13.7629 34.2914 13.6034 33.8475C13.5785 33.7698 13.5535 33.6921 13.5279 33.6121C13.3206 33.0301 13.1085 32.5342 12.7526 32.0249C12.5104 31.6658 12.3922 31.463 12.4529 31.0262C12.483 30.904 12.5131 30.7818 12.5441 30.6559C12.5097 30.5511 12.4753 30.4464 12.4399 30.3384C12.3956 29.9367 12.4006 29.7614 12.6296 29.4241C12.7485 29.2874 12.7485 29.2874 12.8699 29.148C13.1957 28.7343 13.1957 28.7343 13.2827 28.2291C13.2281 27.9685 13.1625 27.7287 13.0653 27.4814C12.9277 27.4814 12.7901 27.4814 12.6484 27.4814C12.1738 27.4293 11.7731 27.2486 11.3975 26.9523C11.2607 26.6878 11.2607 26.6878 11.189 26.4233C11.1301 26.1955 11.1301 26.1955 10.9806 26C10.6873 25.9022 10.6873 25.9022 10.334 25.8653C10.1338 25.8364 10.1338 25.8364 9.9295 25.8069C9.8586 25.7975 9.7877 25.788 9.71465 25.7782C9.34572 25.7286 8.97784 25.6721 8.61 25.6148C8.53646 25.6033 8.46292 25.5919 8.38715 25.5801C7.06295 25.3669 5.78454 24.9564 4.5179 24.5186ZM12.0229 26C12.0573 26.2794 12.0917 26.5587 12.1272 26.8465C12.2304 26.8814 12.3336 26.9164 12.4399 26.9523C12.5431 26.8825 12.6463 26.8127 12.7526 26.7407C12.959 26.8455 13.1654 26.9502 13.378 27.0582C13.55 26.7439 13.722 26.4296 13.8992 26.1058C13.4604 26.0167 13.1101 25.9889 12.6679 25.9934C12.5468 25.9943 12.4258 25.9953 12.301 25.9963C12.2093 25.9975 12.1175 25.9987 12.0229 26ZM2.95435 27.5872C3.05859 27.9047 3.05859 27.9047 3.05859 27.9047L2.95435 27.5872ZM3.05859 27.9047C3.05859 28.0444 3.05859 28.184 3.05859 28.3279C3.12738 28.293 3.19618 28.2581 3.26706 28.2221C3.19826 28.1174 3.12947 28.0126 3.05859 27.9047Z" fill="#FBFBFA"/>
<path d="M43.9194 5.04861C44.1781 5.16255 44.3282 5.28018 44.5448 5.47187C44.5448 5.5417 44.5448 5.61154 44.5448 5.6835C44.6136 5.71842 44.6824 5.75333 44.7533 5.78931C44.9821 6.82653 45.028 7.91772 45.1152 8.97534C45.1287 9.13439 45.1421 9.29343 45.1557 9.45247C45.1908 9.86673 45.2254 10.281 45.2599 10.6953C45.3018 11.1981 45.3443 11.7007 45.3867 12.2034C45.4198 12.5946 45.4527 12.9857 45.4853 13.3769C45.5482 14.1286 45.614 14.8798 45.6914 15.6301C46.1042 15.6825 46.1042 15.6825 46.5253 15.7359C46.4874 14.2659 46.4029 12.8054 46.2798 11.3405C46.1746 10.0758 46.0733 8.81135 46.0497 7.54187C46.0436 7.38525 46.0436 7.38525 46.0375 7.22546C46.0349 6.60844 46.1409 6.27171 46.5583 5.81786C46.8717 5.5779 47.1837 5.53715 47.5676 5.57768C48.0583 5.75008 48.3363 5.97762 48.61 6.4242C48.8006 7.07955 48.8795 7.72393 48.9419 8.40286C48.9575 8.56495 48.9575 8.56495 48.9734 8.73031C48.9956 8.96051 49.0175 9.19075 49.0391 9.42101C49.0728 9.77945 49.1073 10.1378 49.1421 10.4961C49.234 11.4444 49.3248 12.3929 49.4112 13.3417C49.4312 13.5606 49.4517 13.7794 49.4724 13.9982C49.4961 14.2492 49.5187 14.5004 49.5402 14.7516C49.5951 15.3275 49.6613 15.7709 49.9651 16.265C50.1371 16.265 50.3091 16.265 50.4863 16.265C50.5144 15.5172 50.4582 14.7955 50.3593 14.0555C50.2821 13.4707 50.2394 12.8876 50.2037 12.2986C50.171 11.8956 50.1151 11.4998 50.0563 11.0999C49.8678 9.70381 49.8678 9.70381 50.2713 9.06958C50.5591 8.78623 50.7393 8.72844 51.1312 8.70584C51.5921 8.71714 51.879 8.81057 52.2017 9.15093C52.8524 10.1064 52.8292 11.874 52.9814 13.0112C52.9949 13.1105 53.0083 13.2098 53.0221 13.3121C53.5448 17.1799 54.0084 21.0284 53.9261 24.9418C53.9252 25.0188 53.9243 25.0957 53.9233 25.1749C53.8564 29.8532 52.0581 34.8399 49.3397 38.592C49.257 38.7063 49.257 38.7063 49.1727 38.823C48.3951 39.8885 47.5782 40.855 46.6295 41.7665C46.3792 42.0174 46.1322 42.2697 45.8917 42.5303C44.2146 44.3186 42.0505 45.7095 39.8544 46.7466C39.6419 46.8474 39.4311 46.9514 39.2202 47.0556C36.5847 48.3286 33.6396 49.0656 30.7175 49.0929C30.6248 49.094 30.5321 49.095 30.4366 49.0961C24.0089 49.1534 17.8029 47.2962 13.0478 42.7126C12.8771 42.5408 12.7099 42.3664 12.5441 42.1897C12.4603 42.1046 12.3764 42.0195 12.2901 41.9318C12.2019 41.8423 12.1138 41.7528 12.0229 41.6606C11.9548 41.5927 11.8867 41.5248 11.8165 41.4548C11.7059 41.3439 11.7059 41.3439 11.593 41.2308C11.5239 41.1619 11.4548 41.093 11.3837 41.022C11.1962 40.8218 11.0348 40.6152 10.8763 40.3909C10.9107 40.321 10.9451 40.2512 10.9806 40.1792C11.0428 40.2281 11.105 40.2769 11.1691 40.3272C13.2211 41.8934 15.5246 42.9917 17.9644 43.7769C18.0962 43.8197 18.0962 43.8197 18.2307 43.8633C20.255 44.5107 22.3039 44.8954 24.4271 44.9409C24.5534 44.9451 24.6797 44.9494 24.8098 44.9537C28.0106 45.014 31.2707 44.3266 34.1211 42.8246C34.2326 42.7672 34.3442 42.7098 34.4591 42.6506C38.1868 40.6784 41.3278 37.3772 42.6425 33.2684C43.2902 31.0901 43.3219 28.993 43.2939 26.7407C45.6922 26.6533 45.6922 26.6533 46.5253 27.164C46.0977 26.3748 45.3903 25.7566 44.5448 25.4709C43.2242 25.1515 42.1015 25.5306 40.9535 26.2166C40.9003 26.2499 40.8471 26.2832 40.7923 26.3174C40.7896 26.2316 40.7869 26.1459 40.7841 26.0575C40.6518 23.4357 38.9267 21.1163 37.2156 19.2477C36.6408 18.6137 36.1234 18.0314 36.067 17.1372C36.1496 16.5711 36.5628 16.1901 36.9811 15.8417C37.6627 15.5717 38.3717 15.7688 39.0202 16.0534C39.3604 16.2708 39.6572 16.5246 39.9584 16.7941C40.0409 16.8651 40.1234 16.9362 40.2084 17.0094C40.7689 17.5039 41.2739 18.0316 41.756 18.6038C42.016 18.9045 42.1788 19.048 42.5643 19.122C42.5272 17.3535 42.4653 15.5866 42.3835 13.8197C42.3783 13.7066 42.3783 13.7066 42.373 13.5912C42.341 12.8982 42.3089 12.2052 42.2751 11.5123C42.2032 10.041 42.1335 8.56932 42.1119 7.09629C42.109 6.99365 42.1061 6.89101 42.103 6.78526C42.0987 6.04532 42.253 5.71717 42.7402 5.16765C43.1271 4.97658 43.4983 4.97995 43.9194 5.04861Z" fill="#3065D9" fill-opacity="0.81"/>
<path d="M26.8812 0.16293C27.1029 0.178679 27.3251 0.187178 27.5473 0.194344C29.757 0.274368 32.1063 0.862623 34.1211 1.76834C34.3533 1.86574 34.5857 1.96275 34.8182 2.05934C35.3591 2.2844 35.3591 2.2844 35.4762 2.40323C35.7555 4.39688 35.5031 6.49756 35.0067 8.43464C34.9504 8.66529 34.9041 8.89711 34.8573 9.12994C34.715 9.78432 34.4208 10.363 34.1281 10.9591C34.0527 11.1129 33.9782 11.2671 33.9044 11.4218C32.9649 13.388 31.7298 15.0664 30.2221 16.6216C30.0697 16.7797 29.9205 16.9409 29.7717 17.1024C26.8367 20.2258 22.6671 22.1893 18.6215 23.2869C18.4245 23.3425 18.2298 23.4067 18.0361 23.4733C17.7426 23.5707 17.4617 23.6252 17.1566 23.6721C16.7626 23.7346 16.3735 23.8042 15.9839 23.8903C14.8589 24.1205 13.7133 24.1134 12.5702 24.1086C12.4964 24.1083 12.4226 24.1081 12.3466 24.1079C8.38094 24.0931 4.43461 23.182 1.49505 20.286C1.38863 20.1929 1.38863 20.1929 1.28006 20.0979C1.09375 19.9185 0.971459 19.7848 0.869629 19.5453C0.898327 19.1638 1.04296 18.8396 1.18234 18.4871C1.23755 18.2868 1.29177 18.0862 1.34521 17.8853C1.95237 15.8928 2.88169 13.8317 4.07083 12.1233C4.2114 11.923 4.2114 11.923 4.34323 11.6864C5.69464 9.45117 7.59008 7.39022 9.62551 5.78932C9.72897 5.70489 9.83243 5.62045 9.93903 5.53346C12.8913 3.14394 12.8913 3.14394 13.795 3.14394C13.8294 3.0741 13.8638 3.00426 13.8992 2.93231C14.1754 2.78777 14.4506 2.6528 14.7331 2.52228C14.8474 2.46847 14.8474 2.46847 14.964 2.41357C15.1205 2.34012 15.2773 2.26728 15.4344 2.19501C15.5881 2.12413 15.7413 2.0522 15.894 1.97904C19.2401 0.404732 23.2298 -0.116366 26.8812 0.16293ZM26.3034 3.5672C26.3378 3.63704 26.3722 3.70688 26.4076 3.77883C26.4764 3.77883 26.5452 3.77883 26.6161 3.77883C26.6505 3.88359 26.6849 3.98835 26.7203 4.09628C26.8364 4.07663 26.9525 4.05699 27.0721 4.03676C27.45 3.99046 27.45 3.99046 27.6584 4.09628C27.45 4.62535 27.45 4.62535 27.3478 4.86798C27.1948 5.28026 27.1128 5.70428 27.0204 6.13404C26.9251 6.4359 26.8361 6.5305 26.6161 6.74165C26.601 6.86387 26.586 6.98609 26.5705 7.11201C26.5118 7.48236 26.5118 7.48236 26.3343 7.65555C26.0678 7.81614 25.8439 7.87479 25.5411 7.93869C25.034 8.0674 24.7729 8.23773 24.4072 8.60541C24.1745 8.78648 23.9834 8.81973 23.6975 8.8778C23.2038 9.00347 23.0391 9.20304 22.7724 9.63834C22.7189 9.73737 22.6654 9.8364 22.6103 9.93843C22.4423 10.2414 22.2496 10.4968 22.0297 10.7626C21.5433 10.5921 21.1105 10.429 20.8252 9.97646C20.5618 9.28745 20.3751 8.48827 20.6648 7.78079C20.7788 7.57495 20.7788 7.57495 20.9873 7.27073C20.8325 7.21835 20.8325 7.21835 20.6746 7.16492C20.5423 6.89629 20.4699 6.66192 20.427 6.36469C20.3379 6.0118 20.2401 5.89327 19.9449 5.6835C19.633 5.61799 19.3247 5.59148 19.0068 5.57769C18.9036 5.3158 18.9036 5.3158 18.7983 5.04861C19.1458 4.83698 19.4932 4.62535 19.8407 4.41372C19.9794 4.32861 19.9794 4.32861 20.1208 4.24177C20.3363 4.11173 20.5531 3.99498 20.7788 3.88465C20.7788 3.84973 20.7788 3.81481 20.7788 3.77883C18.7822 4.00706 16.9294 4.67948 15.1069 5.51279C14.7408 5.68001 14.3729 5.8414 14.0034 6.00095C14.0034 6.03587 14.0034 6.07079 14.0034 6.10676C14.1754 6.14168 14.3474 6.1766 14.5246 6.21258C14.5762 6.36971 14.5762 6.36971 14.6289 6.53002C14.5601 6.53002 14.4913 6.53002 14.4204 6.53002C14.3516 6.70462 14.2828 6.87921 14.2119 7.0591C14.2614 7.10057 14.3108 7.14203 14.3618 7.18476C14.5613 7.41973 14.5885 7.60233 14.6289 7.90562C14.7321 7.90562 14.8353 7.90562 14.9416 7.90562C14.9416 7.83578 14.9416 7.76595 14.9416 7.69399C15.2856 7.72891 15.6295 7.76383 15.9839 7.79981C15.878 8.12247 15.8054 8.30284 15.5475 8.52728C15.4851 8.60149 15.4228 8.67569 15.3585 8.75214C15.3922 9.13274 15.3922 9.13274 15.4628 9.49285C15.394 9.56269 15.3252 9.63252 15.2543 9.70448C14.7526 9.50641 14.7526 9.50641 14.5421 9.35975C14.3059 9.24899 14.3059 9.24899 14.0429 9.40026C13.2434 9.92416 13.2434 9.92416 12.6484 10.6568C12.6055 10.9865 12.6055 10.9865 12.7526 11.2917C13.1829 11.7392 13.6564 11.9815 14.2119 12.244C14.2119 12.5583 14.2119 12.8726 14.2119 13.1964C14.3151 13.2488 14.3151 13.2488 14.4204 13.3022C14.4892 13.2673 14.558 13.2324 14.6289 13.1964C14.693 12.9863 14.693 12.9863 14.7331 12.74C14.7954 12.3985 14.8808 12.1259 15.0458 11.8208C15.149 11.8208 15.2522 11.8208 15.3585 11.8208C15.323 11.6276 15.323 11.6276 15.2869 11.4306C15.2325 10.9946 15.3136 10.8072 15.567 10.4452C15.6186 10.275 15.6186 10.275 15.6712 10.1013C15.7056 10.0053 15.74 9.90923 15.7755 9.81029C16.1783 9.67397 16.3264 9.75103 16.7136 9.91611C17.0834 10.1497 17.2126 10.2492 17.3195 10.6833C17.3259 10.7793 17.3324 10.8753 17.339 10.9743C17.5454 11.0266 17.5454 11.0266 17.756 11.0801C17.8355 10.9753 17.9151 10.8706 17.997 10.7626C18.1326 10.5841 18.1326 10.5841 18.2771 10.4452C18.3803 10.4452 18.4835 10.4452 18.5899 10.4452C18.5985 10.5674 18.6071 10.6896 18.6159 10.8155C18.696 11.4534 18.92 11.9623 19.3912 12.3962C19.6935 12.7362 19.6872 12.9427 19.7104 13.3857C19.7469 13.7136 19.9025 13.9635 20.0492 14.2545C20.0239 14.4921 20.007 14.6148 19.8407 14.7836C19.0681 14.7089 19.0681 14.7089 18.7983 14.572C18.7008 14.2667 18.6641 14.11 18.7967 13.8135C18.8316 13.7495 18.8666 13.6855 18.9026 13.6196C18.594 13.6465 18.2858 13.6755 17.9775 13.7056C17.8897 13.713 17.802 13.7205 17.7116 13.7281C17.6276 13.7367 17.5436 13.7452 17.4571 13.754C17.3796 13.7612 17.3021 13.7684 17.2222 13.7758C16.9848 13.8197 16.9848 13.8197 16.8178 14.1487C17.0242 14.1487 17.2306 14.1487 17.4433 14.1487C17.5464 14.4281 17.6496 14.7074 17.756 14.9952C17.9624 14.9952 18.1687 14.9952 18.3814 14.9952C18.3814 15.1349 18.3814 15.2746 18.3814 15.4185C17.659 15.7851 17.659 15.7851 16.9221 16.1592C16.9221 16.0894 16.9221 16.0195 16.9221 15.9476C16.5069 15.8277 16.5069 15.8277 16.1142 15.9476C15.9592 16.1693 15.9592 16.1693 15.9253 16.5163C15.7232 17.0338 15.4668 17.0751 14.9847 17.2909C14.5805 17.5127 14.4907 17.7416 14.3162 18.1697C14.2839 18.2985 14.2517 18.4272 14.2184 18.5599C14.0842 18.9848 13.9449 19.0856 13.5865 19.3337C13.1631 19.6521 13.1631 19.6521 12.8568 20.0744C12.8493 20.3795 12.8472 20.682 12.8503 20.987C12.8508 21.0719 12.8513 21.1567 12.8518 21.2441C12.853 21.4538 12.8549 21.6635 12.8568 21.8732C12.7536 21.8732 12.6505 21.8732 12.5441 21.8732C12.4968 21.7597 12.4495 21.6462 12.4008 21.5293C12.3718 21.4618 12.3428 21.3943 12.3129 21.3247C12.2518 21.1806 12.1949 21.0346 12.1402 20.8878C11.9662 20.6229 11.8013 20.5893 11.5018 20.4976C11.2167 20.4914 10.9506 20.4965 10.6679 20.5175C10.5586 20.5225 10.5586 20.5225 10.4472 20.5276C9.83749 20.5679 9.48935 20.7267 9.07826 21.1788C8.81016 21.5773 8.7782 21.8996 8.7851 22.3758C8.78604 22.4604 8.78698 22.545 8.78795 22.6321C8.78916 22.6959 8.79037 22.7598 8.79161 22.8256C9.01298 22.8638 9.23452 22.9011 9.45612 22.938C9.57947 22.9589 9.70282 22.9797 9.82991 23.0012C10.1378 23.0657 10.1378 23.0657 10.3552 22.9314C10.5506 22.9136 10.5506 22.9136 10.7721 22.9115C10.8452 22.91 10.9183 22.9085 10.9936 22.907C11.1891 22.9314 11.1891 22.9314 11.3975 23.143C11.7236 23.1688 11.7236 23.1688 12.0881 23.1562C12.212 23.1543 12.3359 23.1524 12.4635 23.1504C12.5589 23.148 12.6543 23.1455 12.7526 23.143C12.5548 22.8944 12.5548 22.8944 12.2184 22.9181C12.1195 22.9225 12.0206 22.9269 11.9187 22.9314C11.9513 22.7264 11.9513 22.7264 12.0229 22.5081C12.3748 22.3891 12.4484 22.4141 12.7852 22.5346C12.9103 22.579 12.9103 22.579 13.038 22.6243C13.2738 22.7197 13.2738 22.7197 13.5865 22.8983C14.3374 23.2318 15.2715 22.9947 16.0556 22.8652C16.2263 22.8371 16.2263 22.8371 16.4004 22.8083C18.8175 22.3896 21.1942 21.618 23.3847 20.4976C23.4609 20.4596 23.537 20.4216 23.6155 20.3824C25.2765 19.5504 26.7574 18.5268 28.1796 17.3232C28.2615 17.2592 28.3433 17.1952 28.4276 17.1293C28.8964 16.7686 28.8964 16.7686 29.0656 16.2187C29.0484 16.1292 29.0312 16.0398 29.0135 15.9476C29.1748 15.9443 29.1748 15.9443 29.3393 15.941C29.8137 15.8244 29.9703 15.6771 30.2627 15.2966C30.3955 15.0944 30.3955 15.0944 30.3425 14.8034C30.3167 14.7271 30.2909 14.6507 30.2644 14.572C30.4728 14.3603 30.4728 14.3603 30.7921 14.2016C31.1072 14.077 31.1072 14.077 31.2025 13.8313C30.7897 13.9011 30.3769 13.9709 29.9516 14.0429C29.9173 13.8683 29.8829 13.6937 29.8474 13.5138C29.7872 13.5487 29.727 13.5837 29.665 13.6196C29.4305 13.7255 29.4305 13.7255 29.0135 13.7255C28.8762 13.3925 28.7897 13.1722 28.8572 12.8128C29.0643 12.4799 29.3037 12.3297 29.6389 12.1382C29.7077 12.1382 29.7765 12.1382 29.8474 12.1382C29.8474 11.824 29.8474 11.5097 29.8474 11.1859C30.6683 11.2785 30.6683 11.2785 30.7855 11.3975C30.7941 11.5088 30.8027 11.6201 30.8116 11.7348C30.9096 12.2407 31.0564 12.4132 31.411 12.7731C31.4798 12.7731 31.5486 12.7731 31.6194 12.7731C31.6194 12.9477 31.6194 13.1223 31.6194 13.3022C32.0062 12.834 32.333 12.3314 32.6618 11.8208C32.5242 11.7859 32.3866 11.7509 32.2449 11.715C32.2298 11.5949 32.2148 11.4749 32.1993 11.3512C32.1811 10.9946 32.1811 10.9946 32.0364 10.8684C32.0014 10.6163 32.0014 10.6163 32.0364 10.3394C32.2278 10.1815 32.2278 10.1815 32.4924 10.0352C33.3036 9.49907 33.9086 8.62599 34.229 7.69936C34.2802 7.44804 34.3099 7.2089 34.3296 6.95329C34.3635 6.70627 34.3981 6.45934 34.4338 6.21258C32.0907 4.88877 29.064 3.46421 26.3034 3.5672ZM20.8831 3.67302C20.9175 3.74285 20.9519 3.81269 20.9873 3.88465C21.0905 3.81481 21.1937 3.74497 21.3 3.67302C21.1624 3.67302 21.0248 3.67302 20.8831 3.67302ZM12.6484 6.74165C12.6161 6.86387 12.5839 6.98609 12.5506 7.11201C12.4399 7.48236 12.4399 7.48236 12.2575 7.62124C12.1414 7.65725 12.1414 7.65725 12.0229 7.69399C11.8553 7.75292 11.8553 7.75292 11.6842 7.81303C11.5423 7.85886 11.5423 7.85886 11.3975 7.90562C11.3975 7.94054 11.3975 7.97546 11.3975 8.01144C11.8165 8.07995 12.2235 8.13304 12.6484 8.11725C12.9636 7.87692 12.9636 7.87692 13.1696 7.58818C13.3071 7.58818 13.4447 7.58818 13.5865 7.58818C13.6209 7.37866 13.6553 7.16915 13.6907 6.95329C13.5531 6.9882 13.4156 7.02312 13.2738 7.0591C13.205 6.88451 13.1362 6.70991 13.0653 6.53002C12.9129 6.52024 12.9129 6.52024 12.6484 6.74165ZM14.1077 6.63584C14.1421 6.70568 14.1765 6.77552 14.2119 6.84747C14.2463 6.77763 14.2807 6.70779 14.3162 6.63584C14.2474 6.63584 14.1786 6.63584 14.1077 6.63584ZM29.7432 12.3499C29.8808 12.4895 30.0184 12.6292 30.1601 12.7731C30.0913 12.6334 30.0225 12.4938 29.9516 12.3499C29.8829 12.3499 29.8141 12.3499 29.7432 12.3499ZM30.0559 12.8789C29.9871 13.0884 29.9183 13.298 29.8474 13.5138C29.985 13.444 30.1226 13.3741 30.2644 13.3022C30.23 13.1625 30.1956 13.0228 30.1601 12.8789C30.1257 12.8789 30.0913 12.8789 30.0559 12.8789ZM4.83062 19.5453C4.59564 20.1337 4.55965 20.7176 4.51791 21.3441C4.91446 21.5771 4.91446 21.5771 5.3518 21.6616C5.33286 21.5654 5.33286 21.5654 5.31353 21.4673C5.18731 20.8266 5.06108 20.186 4.93486 19.5453C4.90046 19.5453 4.86606 19.5453 4.83062 19.5453ZM5.66451 19.9685C5.76875 20.3918 5.76875 20.3918 5.76875 20.3918L5.66451 19.9685ZM5.76875 20.3918C5.81877 20.9811 5.90417 21.5209 6.08146 22.0848C6.21905 22.1198 6.35665 22.1547 6.49841 22.1907C6.41642 21.9502 6.33381 21.7099 6.25084 21.4698C6.21618 21.3678 6.21618 21.3678 6.18081 21.2637C6.06854 20.9403 5.95735 20.679 5.76875 20.3918Z" fill="#FBFBFA"/>
<path d="M15.7755 6.31838C15.8099 6.28347 15.8443 6.24855 15.8797 6.21257C16.4828 6.14555 16.9167 6.20683 17.4432 6.53001C17.512 6.56275 17.5808 6.59549 17.6517 6.62922C18.2177 6.93445 18.5697 7.1717 18.7983 7.7998C18.7639 7.86963 18.7295 7.93947 18.6941 8.01143C18.8317 8.01143 18.9693 8.01143 19.111 8.01143C19.111 8.08126 19.111 8.1511 19.111 8.22306C19.2142 8.25798 19.3174 8.29289 19.4237 8.32887C19.2283 8.84472 19.2283 8.84472 19.111 8.96376C18.9026 8.96808 18.694 8.96826 18.4856 8.96376C18.5544 9.06852 18.6232 9.17328 18.6941 9.28121C18.3134 9.96211 18.3134 9.96211 18.0687 10.1277C17.5623 10.1277 17.2706 9.92558 16.8919 9.61519C16.6951 9.48013 16.5285 9.43225 16.2966 9.38702C16.3162 9.0828 16.3162 9.0828 16.4009 8.75213C16.6615 8.62648 16.6615 8.62648 16.9221 8.5405C17.0589 8.22967 17.0589 8.22967 16.9351 7.94529C16.6421 7.61292 16.445 7.625 16.0206 7.59974C15.9397 7.59592 15.8588 7.5921 15.7755 7.58817C15.409 7.54017 15.0833 7.49503 14.7331 7.37654C14.6826 6.59506 14.6826 6.59506 14.9025 6.31177C15.2271 6.18169 15.44 6.24271 15.7755 6.31838Z" fill="#FDFCFB"/>
<path d="M27.5021 8.61325C27.5726 8.61154 27.6432 8.60984 27.7158 8.60808C28.0224 8.60777 28.2323 8.60975 28.4878 8.79098C28.5966 8.96376 28.5966 8.96376 28.6161 9.22168C28.448 9.58993 28.2388 9.67933 27.8803 9.8388C27.5742 9.94545 27.3525 9.97507 27.033 9.91609C26.6443 9.63109 26.5316 9.31934 26.4076 8.85794C26.7844 8.60295 27.0666 8.61114 27.5021 8.61325Z" fill="#FCFCFC"/>
<path d="M25.9907 3.35556C27.9716 3.53995 27.9716 3.53995 28.8051 3.88464C28.5123 4.03325 28.3276 3.96259 28.0062 3.9082C27.8893 3.88876 27.7724 3.86932 27.6519 3.8493C27.5294 3.82822 27.4068 3.80715 27.2806 3.78543C27.1572 3.76477 27.0339 3.7441 26.9068 3.72281C26.6013 3.67154 26.296 3.61964 25.9907 3.56719C25.9907 3.49735 25.9907 3.42751 25.9907 3.35556Z" fill="#F2F1F1"/>
<path d="M17.5475 14.2545C17.5819 14.2545 17.6163 14.2545 17.6517 14.2545C17.6861 14.4989 17.7205 14.7434 17.756 14.9952C17.9624 14.9603 18.1687 14.9254 18.3814 14.8894C18.3814 15.0291 18.3814 15.1688 18.3814 15.3127C17.6778 15.1407 17.6778 15.1407 17.4433 14.7836C17.4823 14.4992 17.4823 14.4992 17.5475 14.2545Z" fill="#F0F1F1"/>
<path d="M32.1406 50.7607C32.1406 50.8306 32.1406 50.9004 32.1406 50.9724C31.8409 51.0385 31.8409 51.0385 31.5152 51.0782C31.4464 51.0083 31.3776 50.9385 31.3067 50.8665C31.6119 50.7633 31.8233 50.752 32.1406 50.7607Z" fill="#F4F6F5"/>
<path d="M12.5441 22.0848C12.8568 22.1907 12.8568 22.1907 12.8568 22.1907L12.5441 22.0848Z" fill="#EBEBF7"/>
</g>
<defs>
<clipPath id="clip0_2_2">
<rect width="54" height="52" fill="white"/>
</clipPath>
</defs>
</svg>
